<svg width="10" height="10" viewBox="0 0 10 10" fill="none" xmlns="http://www.w3.org/2000/svg">
<g clip-path="url(#clip0_1_463)">
<path d="M5 0.9375C7.25 0.9375 9.0625 2.75 9.0625 5C9.0625 7.25 7.25 9.0625 5 9.0625C2.75 9.0625 0.9375 7.25 0.9375 5C0.9375 2.75 2.75 0.9375 5 0.9375ZM5 0C2.25 0 0 2.25 0 5C0 7.75 2.25 10 5 10C7.75 10 10 7.75 10 5C10 2.25 7.75 0 5 0Z" fill="#F5F5F5"/>
<path d="M6.1875 6.4375C5.875 6.6875 5.4375 6.875 5 6.875C3.9375 6.875 3.125 6.0625 3.125 5C3.125 3.9375 3.9375 3.125 5 3.125C5.5 3.125 6 3.3125 6.3125 3.6875L7 3C6.5 2.5 5.75 2.1875 5 2.1875C3.4375 2.1875 2.1875 3.4375 2.1875 5C2.1875 6.5625 3.4375 7.8125 5 7.8125C5.6875 7.8125 6.25 7.5625 6.75 7.1875L6.1875 6.4375Z" fill="#F5F5F5"/>
</g>
<defs>
<clipPath id="clip0_1_463">
<rect width="10" height="10" fill="white"/>
</clipPath>
</defs>
</svg>
