<svg width="219" height="122" viewBox="0 0 219 122" fill="none" xmlns="http://www.w3.org/2000/svg">
<path d="M10.125 0.625V46.125H2.28125V0.625H10.125ZM28.6875 20.5312V26.75H8.125V20.5312H28.6875ZM31.2812 0.625V6.875H8.125V0.625H31.2812ZM73.8125 22.125V24.625C73.8125 28.0625 73.3646 31.1458 72.4688 33.875C71.5729 36.6042 70.2917 38.9271 68.625 40.8438C66.9792 42.7604 65 44.2292 62.6875 45.25C60.375 46.25 57.8125 46.75 55 46.75C52.2083 46.75 49.6562 46.25 47.3438 45.25C45.0521 44.2292 43.0625 42.7604 41.375 40.8438C39.6875 38.9271 38.375 36.6042 37.4375 33.875C36.5208 31.1458 36.0625 28.0625 36.0625 24.625V22.125C36.0625 18.6875 36.5208 15.6146 37.4375 12.9062C38.3542 10.1771 39.6458 7.85417 41.3125 5.9375C43 4 44.9896 2.53125 47.2812 1.53125C49.5938 0.510417 52.1458 0 54.9375 0C57.75 0 60.3125 0.510417 62.625 1.53125C64.9375 2.53125 66.9271 4 68.5938 5.9375C70.2604 7.85417 71.5417 10.1771 72.4375 12.9062C73.3542 15.6146 73.8125 18.6875 73.8125 22.125ZM65.9688 24.625V22.0625C65.9688 19.5208 65.7188 17.2812 65.2188 15.3438C64.7396 13.3854 64.0208 11.75 63.0625 10.4375C62.125 9.10417 60.9688 8.10417 59.5938 7.4375C58.2188 6.75 56.6667 6.40625 54.9375 6.40625C53.2083 6.40625 51.6667 6.75 50.3125 7.4375C48.9583 8.10417 47.8021 9.10417 46.8438 10.4375C45.9062 11.75 45.1875 13.3854 44.6875 15.3438C44.1875 17.2812 43.9375 19.5208 43.9375 22.0625V24.625C43.9375 27.1667 44.1875 29.4167 44.6875 31.375C45.1875 33.3333 45.9167 34.9896 46.875 36.3438C47.8542 37.6771 49.0208 38.6875 50.375 39.375C51.7292 40.0417 53.2708 40.375 55 40.375C56.75 40.375 58.3021 40.0417 59.6562 39.375C61.0104 38.6875 62.1562 37.6771 63.0938 36.3438C64.0312 34.9896 64.7396 33.3333 65.2188 31.375C65.7188 29.4167 65.9688 27.1667 65.9688 24.625ZM81.6562 0.625H97.75C101.208 0.625 104.156 1.14583 106.594 2.1875C109.031 3.22917 110.896 4.77083 112.188 6.8125C113.5 8.83333 114.156 11.3333 114.156 14.3125C114.156 16.5833 113.74 18.5833 112.906 20.3125C112.073 22.0417 110.896 23.5 109.375 24.6875C107.854 25.8542 106.042 26.7604 103.938 27.4062L101.562 28.5625H87.0938L87.0312 22.3438H97.875C99.75 22.3438 101.312 22.0104 102.562 21.3438C103.812 20.6771 104.75 19.7708 105.375 18.625C106.021 17.4583 106.344 16.1458 106.344 14.6875C106.344 13.1042 106.031 11.7292 105.406 10.5625C104.802 9.375 103.865 8.46875 102.594 7.84375C101.323 7.19792 99.7083 6.875 97.75 6.875H89.5V46.125H81.6562V0.625ZM107.625 46.125L96.9375 25.6875L105.156 25.6562L116 45.7188V46.125H107.625ZM125.156 0.625H132.156L145.312 35.7188L158.438 0.625H165.438L148.062 46.125H142.5L125.156 0.625ZM121.969 0.625H128.625L129.781 31V46.125H121.969V0.625ZM161.969 0.625H168.656V46.125H160.812V31L161.969 0.625ZM196.25 6.6875L182.656 46.125H174.438L191.562 0.625H196.812L196.25 6.6875ZM207.625 46.125L194 6.6875L193.406 0.625H198.688L215.875 46.125H207.625ZM206.969 29.25V35.4688H182.219V29.25H206.969ZM26.2188 109.406C26.2188 108.469 26.0729 107.635 25.7812 106.906C25.5104 106.177 25.0208 105.51 24.3125 104.906C23.6042 104.302 22.6042 103.719 21.3125 103.156C20.0417 102.573 18.4167 101.979 16.4375 101.375C14.2708 100.708 12.2708 99.9688 10.4375 99.1562C8.625 98.3229 7.04167 97.3646 5.6875 96.2812C4.33333 95.1771 3.28125 93.9167 2.53125 92.5C1.78125 91.0625 1.40625 89.4062 1.40625 87.5312C1.40625 85.6771 1.79167 83.9896 2.5625 82.4688C3.35417 80.9479 4.46875 79.6354 5.90625 78.5312C7.36458 77.4062 9.08333 76.5417 11.0625 75.9375C13.0417 75.3125 15.2292 75 17.625 75C21 75 23.9062 75.625 26.3438 76.875C28.8021 78.125 30.6875 79.8021 32 81.9062C33.3333 84.0104 34 86.3333 34 88.875H26.2188C26.2188 87.375 25.8958 86.0521 25.25 84.9062C24.625 83.7396 23.6667 82.8229 22.375 82.1562C21.1042 81.4896 19.4896 81.1562 17.5312 81.1562C15.6771 81.1562 14.1354 81.4375 12.9062 82C11.6771 82.5625 10.7604 83.3229 10.1562 84.2812C9.55208 85.2396 9.25 86.3229 9.25 87.5312C9.25 88.3854 9.44792 89.1667 9.84375 89.875C10.2396 90.5625 10.8438 91.2083 11.6562 91.8125C12.4688 92.3958 13.4896 92.9479 14.7188 93.4688C15.9479 93.9896 17.3958 94.4896 19.0625 94.9688C21.5833 95.7188 23.7812 96.5521 25.6562 97.4688C27.5312 98.3646 29.0938 99.3854 30.3438 100.531C31.5938 101.677 32.5312 102.979 33.1562 104.438C33.7812 105.875 34.0938 107.51 34.0938 109.344C34.0938 111.26 33.7083 112.99 32.9375 114.531C32.1667 116.052 31.0625 117.354 29.625 118.438C28.2083 119.5 26.5 120.323 24.5 120.906C22.5208 121.469 20.3125 121.75 17.875 121.75C15.6875 121.75 13.5312 121.458 11.4062 120.875C9.30208 120.292 7.38542 119.406 5.65625 118.219C3.92708 117.01 2.55208 115.51 1.53125 113.719C0.510417 111.906 0 109.792 0 107.375H7.84375C7.84375 108.854 8.09375 110.115 8.59375 111.156C9.11458 112.198 9.83333 113.052 10.75 113.719C11.6667 114.365 12.7292 114.844 13.9375 115.156C15.1667 115.469 16.4792 115.625 17.875 115.625C19.7083 115.625 21.2396 115.365 22.4688 114.844C23.7188 114.323 24.6562 113.594 25.2812 112.656C25.9062 111.719 26.2188 110.635 26.2188 109.406ZM59.75 75.625V121.125H51.9688V75.625H59.75ZM74.0312 75.625V81.875H37.8125V75.625H74.0312ZM105.562 75.625H113.375V106.031C113.375 109.49 112.625 112.385 111.125 114.719C109.625 117.052 107.583 118.812 105 120C102.438 121.167 99.5729 121.75 96.4062 121.75C93.1354 121.75 90.2188 121.167 87.6562 120C85.0938 118.812 83.0729 117.052 81.5938 114.719C80.1354 112.385 79.4062 109.49 79.4062 106.031V75.625H87.2188V106.031C87.2188 108.219 87.5938 110.021 88.3438 111.438C89.0938 112.833 90.1562 113.865 91.5312 114.531C92.9062 115.198 94.5312 115.531 96.4062 115.531C98.2812 115.531 99.8958 115.198 101.25 114.531C102.625 113.865 103.688 112.833 104.438 111.438C105.188 110.021 105.562 108.219 105.562 106.031V75.625ZM135.125 121.125H125.406L125.469 114.906H135.125C137.938 114.906 140.292 114.292 142.188 113.062C144.104 111.833 145.542 110.073 146.5 107.781C147.479 105.49 147.969 102.76 147.969 99.5938V97.125C147.969 94.6667 147.688 92.4896 147.125 90.5938C146.583 88.6979 145.771 87.1042 144.688 85.8125C143.625 84.5208 142.312 83.5417 140.75 82.875C139.208 82.2083 137.427 81.875 135.406 81.875H125.219V75.625H135.406C138.427 75.625 141.188 76.1354 143.688 77.1562C146.188 78.1562 148.344 79.6042 150.156 81.5C151.99 83.3958 153.396 85.6667 154.375 88.3125C155.354 90.9583 155.844 93.9167 155.844 97.1875V99.5938C155.844 102.865 155.354 105.823 154.375 108.469C153.396 111.115 151.99 113.385 150.156 115.281C148.323 117.156 146.135 118.604 143.594 119.625C141.073 120.625 138.25 121.125 135.125 121.125ZM129.75 75.625V121.125H121.906V75.625H129.75ZM172.094 75.625V121.125H164.25V75.625H172.094ZM218.125 97.125V99.625C218.125 103.062 217.677 106.146 216.781 108.875C215.885 111.604 214.604 113.927 212.938 115.844C211.292 117.76 209.312 119.229 207 120.25C204.688 121.25 202.125 121.75 199.312 121.75C196.521 121.75 193.969 121.25 191.656 120.25C189.365 119.229 187.375 117.76 185.688 115.844C184 113.927 182.688 111.604 181.75 108.875C180.833 106.146 180.375 103.062 180.375 99.625V97.125C180.375 93.6875 180.833 90.6146 181.75 87.9062C182.667 85.1771 183.958 82.8542 185.625 80.9375C187.312 79 189.302 77.5312 191.594 76.5312C193.906 75.5104 196.458 75 199.25 75C202.062 75 204.625 75.5104 206.938 76.5312C209.25 77.5312 211.24 79 212.906 80.9375C214.573 82.8542 215.854 85.1771 216.75 87.9062C217.667 90.6146 218.125 93.6875 218.125 97.125ZM210.281 99.625V97.0625C210.281 94.5208 210.031 92.2812 209.531 90.3438C209.052 88.3854 208.333 86.75 207.375 85.4375C206.438 84.1042 205.281 83.1042 203.906 82.4375C202.531 81.75 200.979 81.4062 199.25 81.4062C197.521 81.4062 195.979 81.75 194.625 82.4375C193.271 83.1042 192.115 84.1042 191.156 85.4375C190.219 86.75 189.5 88.3854 189 90.3438C188.5 92.2812 188.25 94.5208 188.25 97.0625V99.625C188.25 102.167 188.5 104.417 189 106.375C189.5 108.333 190.229 109.99 191.188 111.344C192.167 112.677 193.333 113.688 194.688 114.375C196.042 115.042 197.583 115.375 199.312 115.375C201.062 115.375 202.615 115.042 203.969 114.375C205.323 113.688 206.469 112.677 207.406 111.344C208.344 109.99 209.052 108.333 209.531 106.375C210.031 104.417 210.281 102.167 210.281 99.625Z" fill="#F5F5F5"/>
</svg>
