<svg width="15" height="15" viewBox="0 0 15 15" fill="none" xmlns="http://www.w3.org/2000/svg">
<path d="M7.50014 4.1875C6.44302 4.1875 5.58301 5.04754 5.58301 6.10463C5.58301 7.16172 6.44302 8.02176 7.50014 8.02176C8.55726 8.02176 9.41727 7.16172 9.41727 6.10463C9.41727 5.04754 8.55723 4.1875 7.50014 4.1875Z" fill="#F5F5F5"/>
<path d="M11.9865 1.85818C10.7883 0.659912 9.19508 0 7.50049 0C5.8059 0 4.21271 0.659912 3.01446 1.85818C1.81616 3.05648 1.15625 4.64965 1.15625 6.34421C1.15625 9.77232 4.39766 12.6236 6.13906 14.1555C6.38103 14.3684 6.59 14.5522 6.75644 14.7076C6.96506 14.9026 7.23272 15 7.50046 15C7.76818 15 8.03589 14.9025 8.24449 14.7077C8.41098 14.5522 8.61993 14.3684 8.86189 14.1555C10.6033 12.6237 13.8447 9.77235 13.8447 6.34424C13.8447 4.64965 13.1848 3.05648 11.9865 1.85818ZM7.50049 8.9003C5.95886 8.9003 4.70469 7.64613 4.70469 6.1045C4.70469 4.56287 5.95886 3.3087 7.50049 3.3087C9.04212 3.3087 10.2963 4.56287 10.2963 6.1045C10.2963 7.64613 9.04209 8.9003 7.50049 8.9003Z" fill="#F5F5F5"/>
</svg>
