<svg width="141" height="15" viewBox="0 0 141 15" fill="none" xmlns="http://www.w3.org/2000/svg">
<path d="M2.45117 0.195312V14.4141H0V0.195312H2.45117ZM8.25195 6.41602V8.35938H1.82617V6.41602H8.25195ZM9.0625 0.195312V2.14844H1.82617V0.195312H9.0625ZM22.3535 6.91406V7.69531C22.3535 8.76953 22.2135 9.73307 21.9336 10.5859C21.6536 11.4388 21.2533 12.1647 20.7324 12.7637C20.2181 13.3626 19.5996 13.8216 18.877 14.1406C18.1543 14.4531 17.3535 14.6094 16.4746 14.6094C15.6022 14.6094 14.8047 14.4531 14.082 14.1406C13.3659 13.8216 12.7441 13.3626 12.2168 12.7637C11.6895 12.1647 11.2793 11.4388 10.9863 10.5859C10.6999 9.73307 10.5566 8.76953 10.5566 7.69531V6.91406C10.5566 5.83984 10.6999 4.87956 10.9863 4.0332C11.2728 3.18034 11.6764 2.45443 12.1973 1.85547C12.7246 1.25 13.3464 0.791016 14.0625 0.478516C14.7852 0.159505 15.5827 0 16.4551 0C17.334 0 18.1348 0.159505 18.8574 0.478516C19.5801 0.791016 20.2018 1.25 20.7227 1.85547C21.2435 2.45443 21.6439 3.18034 21.9238 4.0332C22.2103 4.87956 22.3535 5.83984 22.3535 6.91406ZM19.9023 7.69531V6.89453C19.9023 6.10026 19.8242 5.40039 19.668 4.79492C19.5182 4.18294 19.2936 3.67188 18.9941 3.26172C18.7012 2.84505 18.3398 2.53255 17.9102 2.32422C17.4805 2.10938 16.9954 2.00195 16.4551 2.00195C15.9147 2.00195 15.4329 2.10938 15.0098 2.32422C14.5866 2.53255 14.2253 2.84505 13.9258 3.26172C13.6328 3.67188 13.4082 4.18294 13.252 4.79492C13.0957 5.40039 13.0176 6.10026 13.0176 6.89453V7.69531C13.0176 8.48958 13.0957 9.19271 13.252 9.80469C13.4082 10.4167 13.6361 10.9342 13.9355 11.3574C14.2415 11.7741 14.6061 12.0898 15.0293 12.3047C15.4525 12.513 15.9342 12.6172 16.4746 12.6172C17.0215 12.6172 17.5065 12.513 17.9297 12.3047C18.3529 12.0898 18.7109 11.7741 19.0039 11.3574C19.2969 10.9342 19.5182 10.4167 19.668 9.80469C19.8242 9.19271 19.9023 8.48958 19.9023 7.69531ZM24.8047 0.195312H29.834C30.9147 0.195312 31.8359 0.358073 32.5977 0.683594C33.3594 1.00911 33.9421 1.49089 34.3457 2.12891C34.7559 2.76042 34.9609 3.54167 34.9609 4.47266C34.9609 5.18229 34.8307 5.80729 34.5703 6.34766C34.3099 6.88802 33.9421 7.34375 33.4668 7.71484C32.9915 8.07943 32.4251 8.36263 31.7676 8.56445L31.0254 8.92578H26.5039L26.4844 6.98242H29.873C30.459 6.98242 30.9473 6.87826 31.3379 6.66992C31.7285 6.46159 32.0215 6.17839 32.2168 5.82031C32.4186 5.45573 32.5195 5.04557 32.5195 4.58984C32.5195 4.09505 32.4219 3.66536 32.2266 3.30078C32.0378 2.92969 31.7448 2.64648 31.3477 2.45117C30.9505 2.24935 30.446 2.14844 29.834 2.14844H27.2559V14.4141H24.8047V0.195312ZM32.9199 14.4141L29.5801 8.02734L32.1484 8.01758L35.5371 14.2871V14.4141H32.9199ZM38.3984 0.195312H40.5859L44.6973 11.1621L48.7988 0.195312H50.9863L45.5566 14.4141H43.8184L38.3984 0.195312ZM37.4023 0.195312H39.4824L39.8438 9.6875V14.4141H37.4023V0.195312ZM49.9023 0.195312H51.9922V14.4141H49.541V9.6875L49.9023 0.195312ZM60.6152 2.08984L56.3672 14.4141H53.7988L59.1504 0.195312H60.791L60.6152 2.08984ZM64.1699 14.4141L59.9121 2.08984L59.7266 0.195312H61.377L66.748 14.4141H64.1699ZM63.9648 9.14062V11.084H56.2305V9.14062H63.9648ZM80.8008 10.752C80.8008 10.459 80.7552 10.1986 80.6641 9.9707C80.5794 9.74284 80.4264 9.53451 80.2051 9.3457C79.9837 9.1569 79.6712 8.97461 79.2676 8.79883C78.8704 8.61654 78.3626 8.43099 77.7441 8.24219C77.0671 8.03385 76.4421 7.80273 75.8691 7.54883C75.3027 7.28841 74.8079 6.98893 74.3848 6.65039C73.9616 6.30534 73.6328 5.91146 73.3984 5.46875C73.1641 5.01953 73.0469 4.50195 73.0469 3.91602C73.0469 3.33659 73.1673 2.80924 73.4082 2.33398C73.6556 1.85872 74.0039 1.44857 74.4531 1.10352C74.9089 0.751953 75.446 0.481771 76.0645 0.292969C76.6829 0.0976562 77.3665 0 78.1152 0C79.1699 0 80.0781 0.195312 80.8398 0.585938C81.6081 0.976562 82.1973 1.50065 82.6074 2.1582C83.0241 2.81576 83.2324 3.54167 83.2324 4.33594H80.8008C80.8008 3.86719 80.6999 3.45378 80.498 3.0957C80.3027 2.73112 80.0033 2.44466 79.5996 2.23633C79.2025 2.02799 78.6979 1.92383 78.0859 1.92383C77.5065 1.92383 77.0247 2.01172 76.6406 2.1875C76.2565 2.36328 75.9701 2.60091 75.7812 2.90039C75.5924 3.19987 75.498 3.53841 75.498 3.91602C75.498 4.18294 75.5599 4.42708 75.6836 4.64844C75.8073 4.86328 75.9961 5.0651 76.25 5.25391C76.5039 5.4362 76.8229 5.60872 77.207 5.77148C77.5911 5.93424 78.0436 6.09049 78.5645 6.24023C79.3522 6.47461 80.0391 6.73503 80.625 7.02148C81.2109 7.30143 81.6992 7.62044 82.0898 7.97852C82.4805 8.33659 82.7734 8.74349 82.9688 9.19922C83.1641 9.64844 83.2617 10.1595 83.2617 10.7324C83.2617 11.3314 83.1413 11.8717 82.9004 12.3535C82.6595 12.8288 82.3145 13.2357 81.8652 13.5742C81.4225 13.9062 80.8887 14.1634 80.2637 14.3457C79.6452 14.5215 78.9551 14.6094 78.1934 14.6094C77.5098 14.6094 76.8359 14.5182 76.1719 14.3359C75.5143 14.1536 74.9154 13.877 74.375 13.5059C73.8346 13.1283 73.4049 12.6595 73.0859 12.0996C72.7669 11.5332 72.6074 10.8724 72.6074 10.1172H75.0586C75.0586 10.5794 75.1367 10.9733 75.293 11.2988C75.4557 11.6243 75.6803 11.8913 75.9668 12.0996C76.2533 12.3014 76.5853 12.4512 76.9629 12.5488C77.347 12.6465 77.7572 12.6953 78.1934 12.6953C78.7663 12.6953 79.2448 12.6139 79.6289 12.4512C80.0195 12.2884 80.3125 12.0605 80.5078 11.7676C80.7031 11.4746 80.8008 11.1361 80.8008 10.752ZM91.2793 0.195312V14.4141H88.8477V0.195312H91.2793ZM95.7422 0.195312V2.14844H84.4238V0.195312H95.7422ZM105.596 0.195312H108.037V9.69727C108.037 10.778 107.803 11.6829 107.334 12.4121C106.865 13.1413 106.227 13.6914 105.42 14.0625C104.619 14.4271 103.724 14.6094 102.734 14.6094C101.712 14.6094 100.801 14.4271 100 14.0625C99.1992 13.6914 98.5677 13.1413 98.1055 12.4121C97.6497 11.6829 97.4219 10.778 97.4219 9.69727V0.195312H99.8633V9.69727C99.8633 10.3809 99.9805 10.944 100.215 11.3867C100.449 11.8229 100.781 12.1452 101.211 12.3535C101.641 12.5618 102.148 12.666 102.734 12.666C103.32 12.666 103.825 12.5618 104.248 12.3535C104.678 12.1452 105.01 11.8229 105.244 11.3867C105.479 10.944 105.596 10.3809 105.596 9.69727V0.195312ZM114.834 14.4141H111.797L111.816 12.4707H114.834C115.713 12.4707 116.449 12.2786 117.041 11.8945C117.64 11.5104 118.089 10.9603 118.389 10.2441C118.695 9.52799 118.848 8.67513 118.848 7.68555V6.91406C118.848 6.14583 118.76 5.46549 118.584 4.87305C118.415 4.2806 118.161 3.78255 117.822 3.37891C117.49 2.97526 117.08 2.66927 116.592 2.46094C116.11 2.2526 115.553 2.14844 114.922 2.14844H111.738V0.195312H114.922C115.866 0.195312 116.729 0.354818 117.51 0.673828C118.291 0.986328 118.965 1.4388 119.531 2.03125C120.104 2.6237 120.544 3.33333 120.85 4.16016C121.156 4.98698 121.309 5.91146 121.309 6.93359V7.68555C121.309 8.70768 121.156 9.63216 120.85 10.459C120.544 11.2858 120.104 11.9954 119.531 12.5879C118.958 13.1738 118.275 13.6263 117.48 13.9453C116.693 14.2578 115.811 14.4141 114.834 14.4141ZM113.154 0.195312V14.4141H110.703V0.195312H113.154ZM126.387 0.195312V14.4141H123.936V0.195312H126.387ZM140.771 6.91406V7.69531C140.771 8.76953 140.632 9.73307 140.352 10.5859C140.072 11.4388 139.671 12.1647 139.15 12.7637C138.636 13.3626 138.018 13.8216 137.295 14.1406C136.572 14.4531 135.771 14.6094 134.893 14.6094C134.02 14.6094 133.223 14.4531 132.5 14.1406C131.784 13.8216 131.162 13.3626 130.635 12.7637C130.107 12.1647 129.697 11.4388 129.404 10.5859C129.118 9.73307 128.975 8.76953 128.975 7.69531V6.91406C128.975 5.83984 129.118 4.87956 129.404 4.0332C129.691 3.18034 130.094 2.45443 130.615 1.85547C131.143 1.25 131.764 0.791016 132.48 0.478516C133.203 0.159505 134.001 0 134.873 0C135.752 0 136.553 0.159505 137.275 0.478516C137.998 0.791016 138.62 1.25 139.141 1.85547C139.661 2.45443 140.062 3.18034 140.342 4.0332C140.628 4.87956 140.771 5.83984 140.771 6.91406ZM138.32 7.69531V6.89453C138.32 6.10026 138.242 5.40039 138.086 4.79492C137.936 4.18294 137.712 3.67188 137.412 3.26172C137.119 2.84505 136.758 2.53255 136.328 2.32422C135.898 2.10938 135.413 2.00195 134.873 2.00195C134.333 2.00195 133.851 2.10938 133.428 2.32422C133.005 2.53255 132.643 2.84505 132.344 3.26172C132.051 3.67188 131.826 4.18294 131.67 4.79492C131.514 5.40039 131.436 6.10026 131.436 6.89453V7.69531C131.436 8.48958 131.514 9.19271 131.67 9.80469C131.826 10.4167 132.054 10.9342 132.354 11.3574C132.66 11.7741 133.024 12.0898 133.447 12.3047C133.87 12.513 134.352 12.6172 134.893 12.6172C135.439 12.6172 135.924 12.513 136.348 12.3047C136.771 12.0898 137.129 11.7741 137.422 11.3574C137.715 10.9342 137.936 10.4167 138.086 9.80469C138.242 9.19271 138.32 8.48958 138.32 7.69531Z" fill="#F5F5F5"/>
</svg>
