<svg width="15" height="15" viewBox="0 0 15 15" fill="none" xmlns="http://www.w3.org/2000/svg">
<g clip-path="url(#clip0_416_76)">
<path d="M2.7966 0.697583C2.56227 0.70467 2.35642 0.828342 2.18411 1.00063L1.89664 1.28764L5.01218 4.45994L5.46445 4.00765C5.73702 3.73509 5.73701 3.28506 5.46445 3.0125L3.45212 1.00063C3.25721 0.805718 3.03092 0.690391 2.7966 0.697583ZM8.19729 1.87907C10.9183 1.87907 13.1196 4.08035 13.1196 6.8014C13.1125 7.12092 13.5955 7.12092 13.5884 6.8014C13.5884 3.82702 11.1717 1.41215 8.18608 1.41215C7.88734 1.44794 7.90767 1.87106 8.19731 1.87907H8.19729ZM1.5643 1.61907L1.23425 1.94866C0.694191 2.48871 0.697755 3.19534 0.697755 3.52151C0.697755 4.87118 1.23733 7.20455 4.51596 10.4832C7.7946 13.7618 10.1284 14.3018 11.4781 14.3018C11.8043 14.3019 12.5109 14.3054 13.051 13.7654L13.3494 13.4669L10.2339 10.2946L9.90704 10.6219C9.71335 10.8156 9.57042 10.8387 9.43143 10.8224C9.29245 10.8061 9.14877 10.7257 9.0437 10.6443C8.47077 10.2008 7.54315 9.56585 6.48846 8.51115C5.43377 7.45647 4.79886 6.52838 4.35529 5.95545C4.27397 5.85038 4.19356 5.70853 4.17722 5.56955C4.16083 5.43057 4.18599 5.28581 4.37955 5.09212L4.6803 4.79137L1.5643 1.61907ZM8.1973 2.81702C7.89163 2.82411 7.89163 3.27902 8.1973 3.28578C10.1417 3.28578 11.7129 4.857 11.7129 6.8014C11.7197 7.10704 12.1749 7.10704 12.1817 6.8014C12.1817 4.60367 10.395 2.81702 8.1973 2.81702ZM8.1973 4.22327C7.88449 4.22327 7.88449 4.69248 8.1973 4.69248C9.36505 4.69248 10.3062 5.63365 10.3062 6.8014C10.3062 7.11421 10.7754 7.11421 10.7754 6.8014C10.7754 5.38032 9.61838 4.22327 8.1973 4.22327ZM8.19729 6.09919C8.5884 6.09919 8.90179 6.4103 8.90179 6.8014C8.89471 7.12092 9.37764 7.12092 9.37054 6.8014C9.37054 6.15697 8.84173 5.62997 8.18608 5.62997C7.8623 5.64512 7.88473 6.11435 8.19731 6.09919H8.19729ZM11.4891 9.33053C11.3085 9.33053 11.1282 9.39885 10.9919 9.53517L10.5653 9.96227L13.6813 13.135L13.999 12.8173C14.1713 12.645 14.2944 12.4373 14.3016 12.203C14.3087 11.9687 14.1939 11.7424 13.999 11.5475L11.9867 9.53517C11.8504 9.39889 11.6696 9.33053 11.4891 9.33053Z" fill="#F5F5F5"/>
</g>
<defs>
<clipPath id="clip0_416_76">
<rect width="15" height="15" fill="white"/>
</clipPath>
</defs>
</svg>
