<svg width="15" height="16" viewBox="0 0 15 16" fill="none" xmlns="http://www.w3.org/2000/svg">
<path d="M7.49997 0.000209808C3.35787 0.000209808 0 3.37433 0 7.53648C0 10.7292 1.97686 13.4586 4.76679 14.5567C4.70125 13.9604 4.64199 13.0434 4.79279 12.3924C4.92909 11.8043 5.67225 8.64643 5.67225 8.64643C5.67225 8.64643 5.44792 8.19496 5.44792 7.52752C5.44792 6.4796 6.05238 5.69726 6.80501 5.69726C7.44488 5.69726 7.75394 6.17999 7.75394 6.75884C7.75394 7.40545 7.34424 8.3722 7.13282 9.26809C6.95612 10.0182 7.50716 10.6299 8.24344 10.6299C9.57643 10.6299 10.6011 9.21755 10.6011 7.17886C10.6011 5.37442 9.31078 4.11281 7.46831 4.11281C5.3343 4.11281 4.08173 5.72117 4.08173 7.38334C4.08173 8.03107 4.33004 8.72562 4.6399 9.1032C4.70119 9.17783 4.71017 9.24319 4.69191 9.31936C4.63498 9.55739 4.50845 10.0693 4.48362 10.174C4.45091 10.312 4.37492 10.3413 4.23278 10.2748C3.29608 9.83668 2.71043 8.46054 2.71043 7.35523C2.71043 4.97793 4.42939 2.79468 7.66596 2.79468C10.2677 2.79468 12.2896 4.65762 12.2896 7.14729C12.2896 9.74457 10.6598 11.8348 8.39775 11.8348C7.63774 11.8348 6.92329 11.4381 6.67873 10.9695C6.67873 10.9695 6.30266 12.4084 6.21149 12.761C6.04217 13.4156 5.58508 14.2361 5.27934 14.7367C5.98106 14.955 6.72681 15.0728 7.49997 15.0728C11.6421 15.0728 15 11.6986 15 7.53648C15 3.37433 11.6421 0.000209808 7.49997 0.000209808Z" fill="#F5F5F5"/>
</svg>
