<svg width="15" height="15" viewBox="0 0 15 15" fill="none" xmlns="http://www.w3.org/2000/svg">
<g clip-path="url(#clip0_1_503)">
<path d="M0.264944 7.23097L3.72124 8.52097L5.05904 12.8233C5.14464 13.0989 5.48159 13.2007 5.70524 13.0179L7.63184 11.4473C7.83379 11.2827 8.12144 11.2745 8.33249 11.4277L11.8074 13.9506C12.0466 14.1245 12.3856 13.9934 12.4456 13.7043L14.9911 1.45972C15.0566 1.14392 14.7463 0.880473 14.4456 0.996773L0.260894 6.46882C-0.0891557 6.60382 -0.0861057 7.09942 0.264944 7.23097ZM4.84344 7.83427L11.5983 3.67392C11.7197 3.59937 11.8446 3.76352 11.7404 3.86022L6.16564 9.04222C5.96969 9.22462 5.84329 9.46872 5.80749 9.73367L5.61759 11.141C5.59244 11.3289 5.32849 11.3475 5.27664 11.1657L4.54629 8.59942C4.46264 8.30672 4.58454 7.99407 4.84344 7.83427Z" fill="#F5F5F5"/>
</g>
<defs>
<clipPath id="clip0_1_503">
<rect width="15" height="15" fill="white"/>
</clipPath>
</defs>
</svg>
